<svg width="37" height="38" viewBox="0 0 37 38" fill="none" xmlns="http://www.w3.org/2000/svg">
<path d="M18.766 0.627075C8.69576 0.627075 0.532074 8.79076 0.532074 18.861C0.532074 28.9315 8.69576 37.095 18.766 37.095C28.8365 37.095 37 28.9315 37 18.861C37 8.79076 28.8365 0.627075 18.766 0.627075ZM18.766 33.8159C10.5066 33.8159 3.81096 27.1203 3.81096 18.861C3.81096 10.6016 10.5066 3.90596 18.766 3.90596C27.0253 3.90596 33.7209 10.6016 33.7209 18.861C33.7209 27.1203 27.0253 33.8159 18.766 33.8159Z" fill="#83CBF8"/>
<path d="M18.4101 27.4652V25.9695C16.5384 25.7782 14.8582 25.0337 13.3693 23.7358L14.8651 21.9531C16.0125 22.9503 17.1939 23.5448 18.4101 23.7358V19.7606C16.8663 19.3918 15.7359 18.9071 15.0189 18.3057C14.3017 17.7048 13.9431 16.8136 13.9431 15.6318C13.9431 14.4506 14.3562 13.4838 15.1829 12.7322C16.0093 11.981 17.0851 11.5713 18.4101 11.5026V10.4782H19.7216V11.5233C21.2242 11.6329 22.6447 12.1449 23.9836 13.0598L22.6516 14.945C21.7499 14.3032 20.7731 13.9072 19.7214 13.7565V17.6088H19.7829C21.3539 17.9777 22.5082 18.4765 23.2457 19.1046C23.9836 19.7331 24.3521 20.6448 24.3521 21.8401C24.3521 23.0355 23.9287 24.0086 23.0818 24.7598C22.235 25.5114 21.1148 25.9211 19.7218 25.9894V27.4649L18.4101 27.4652ZM16.9656 14.2384C16.6173 14.5457 16.4431 14.9283 16.4431 15.386C16.4431 15.8439 16.5793 16.2056 16.853 16.4719C17.1261 16.7384 17.645 16.9944 18.4103 17.2404V13.6954C17.7954 13.7501 17.3139 13.9311 16.9656 14.2384ZM21.2789 23.2238C21.6612 22.9096 21.8525 22.5136 21.8525 22.0353C21.8525 21.5571 21.7021 21.1781 21.402 20.8978C21.1011 20.618 20.5412 20.3551 19.7216 20.1094V23.7974C20.3774 23.7292 20.8962 23.5381 21.2789 23.2238Z" fill="#83CBF8"/>
</svg>
