<svg width="41" height="36" viewBox="0 0 41 36" fill="none" xmlns="http://www.w3.org/2000/svg">
<path d="M40.3914 11.8921L34.1233 3.56295C33.8858 3.24582 33.5334 3.03237 33.1412 2.96777L20.6042 0.8851C20.5178 0.870997 20.4335 0.864899 20.3503 0.864899C20.2662 0.864899 20.182 0.871569 20.0985 0.884719L7.55977 2.96777C7.16816 3.03237 6.81498 3.24487 6.57653 3.56467L0.309008 11.8932C0.102493 12.1677 8.20687e-07 12.4939 8.20687e-07 12.8172C-0.000381614 13.1856 0.132897 13.5555 0.395629 13.8459L19.2016 34.6715C19.494 34.9939 19.9101 35.1816 20.3507 35.1822C20.3512 35.1822 20.3516 35.1822 20.3522 35.1822C20.7891 35.1822 21.2071 34.9962 21.4999 34.6711L40.3059 13.8461C40.5679 13.5541 40.7023 13.1846 40.7019 12.8162C40.7025 12.4926 40.5989 12.1656 40.3914 11.8921ZM39.9921 12.1926L40.0229 12.1694L39.9921 12.1926ZM24.851 4.71349L30.2758 5.61455L28.4675 8.31699L24.851 4.71349ZM36.1932 13.7983L24.5192 26.7275L29.7069 12.5056L36.1932 13.7983ZM31.2736 9.6745L32.9614 7.15102L35.4941 10.5161L31.2736 9.6745ZM26.5027 12.2744L20.3507 29.137L14.1983 12.2744H26.5027ZM15.7226 9.19423L20.3507 4.58141L24.9787 9.19423H15.7226ZM16.1819 26.7244L4.50795 13.796L10.9931 12.5033L16.1819 26.7244ZM10.4244 5.61455L15.8481 4.71368L12.2331 8.31642L10.4244 5.61455ZM5.20704 10.5159L7.73971 7.15121L9.42758 9.6745L5.20704 10.5159Z" fill="#83CBF8"/>
</svg>
