<svg xmlns="http://www.w3.org/2000/svg" width="28.664" height="27.538" viewBox="0 0 28.664 27.538"><g transform="translate(0 0)"><path d="M57.271,11.412a5.294,5.294,0,0,0,.663-3.776,4.573,4.573,0,0,0-2.15-3.077,4.965,4.965,0,0,0-6.718,1.98L48.031,8.286l8.2,4.873Zm-1.89-1.536L51.309,7.457a2.544,2.544,0,0,1,3.274-.838,2.2,2.2,0,0,1,1.026,1.5A2.866,2.866,0,0,1,55.381,9.876Z" transform="translate(-41.147 -3.934)" fill="#4bd6f3"/><path d="M.676,66.358l.7.349,6.839-3.695,5.665-9.526L5.652,48.609,0,58.14l.036,7.09A1.343,1.343,0,0,0,.676,66.358ZM6.5,51.883l4.107,2.436L6.5,61.226,2.414,63.433l-.022-4.658Z" transform="translate(0 -42.206)" fill="#4bd6f3"/><path d="M1.2,179.422H27.468a1.2,1.2,0,0,1,1.2,1.194h0a1.2,1.2,0,0,1-1.2,1.194H1.2A1.2,1.2,0,0,1,0,180.616H0A1.2,1.2,0,0,1,1.2,179.422Z" transform="translate(0 -154.271)" fill="#4bd6f3"/></g></svg>