<svg xmlns="http://www.w3.org/2000/svg" width="23.042" height="28.669" viewBox="0 0 23.042 28.669"><path d="M42.662,5.24V20.168a1.946,1.946,0,0,1,0,.242c-.184,1.223-1.724,2.181-3.614,2.181-2.015,0-3.637-1.088-3.637-2.423s1.621-2.428,3.637-2.428a4.832,4.832,0,0,1,1.178.166V5.24a1.2,1.2,0,0,0-1.008-1.187L29.53,2.428a1.227,1.227,0,0,0-.994.278,1.21,1.21,0,0,0-.4.923V25.623a2.445,2.445,0,0,1-.761,1.733,4.878,4.878,0,0,1-3.5,1.3c-2.342,0-4.246-1.344-4.246-3.032s1.9-3.032,4.246-3.032a5.492,5.492,0,0,1,1.818.3V3.637a3.632,3.632,0,0,1,4.237-3.6l9.692,1.621A3.61,3.61,0,0,1,42.662,5.24Z" transform="translate(-19.623 0.01)" fill="#4bd6f3"/></svg>