<svg xmlns="http://www.w3.org/2000/svg" width="26.657" height="26.657" viewBox="0 0 26.657 26.657"><path d="M113,34.581h0Z" transform="translate(-97.152 -30.617)" fill="#4bd6f3"/><path d="M27.968,12.363H24.615A3.811,3.811,0,0,0,21.17,6.924c-2.119.017-3.753,1.613-4.562,2.532a10.605,10.605,0,0,0-.877,1.156,10.915,10.915,0,0,0-.876-1.156c-.811-.918-2.445-2.515-4.562-2.532a3.811,3.811,0,0,0-3.445,5.439H3.494A1.092,1.092,0,0,0,2.4,13.454v4.079a1.093,1.093,0,0,0,1.091,1.091h.268V31.13a2.453,2.453,0,0,0,2.451,2.451H25.249A2.454,2.454,0,0,0,27.7,31.13V18.624h.268a1.092,1.092,0,0,0,1.091-1.091V13.454A1.092,1.092,0,0,0,27.968,12.363ZM11.921,18.624V31.4H6.213a.268.268,0,0,1-.268-.268V18.624Zm0-4.079v1.9H4.585v-1.9Zm2.318-2.183H10.293a1.628,1.628,0,0,1,0-3.256,4.4,4.4,0,0,1,2.917,1.781A8.327,8.327,0,0,1,14.238,12.363Zm3.121,2.183V31.4H14.1V14.545Zm9.518,0v1.9H19.541v-1.9Zm-8.934-3.928h0l.31.27A4.389,4.389,0,0,1,21.17,9.106a1.628,1.628,0,0,1,0,3.256H17.224a8.222,8.222,0,0,1,1.03-1.475l-.31-.27ZM25.249,31.4H19.541V18.624h5.976V31.13A.27.27,0,0,1,25.249,31.4Z" transform="translate(-2.403 -6.924)" fill="#4bd6f3"/></svg>