<svg width="37" height="40" viewBox="0 0 37 40" fill="none" xmlns="http://www.w3.org/2000/svg">
<path d="M25.9386 34.215H29.1022V37.3786C29.0489 38.2523 29.7136 39.0039 30.5872 39.0572C31.4609 39.1108 32.2125 38.446 32.2658 37.5725C32.2698 37.5079 32.2698 37.4431 32.2658 37.3786V34.215H35.4355C36.3092 34.1616 36.974 33.41 36.9204 32.5363C36.8714 31.7372 36.2344 31.1002 35.4355 31.0514H32.2658V27.8817C32.2125 27.008 31.4609 26.3432 30.5872 26.3968C29.7881 26.4458 29.151 27.0828 29.1022 27.8817V31.0514H25.9386C25.0649 30.998 24.3133 31.6628 24.26 32.5363C24.2062 33.4098 24.871 34.1616 25.7445 34.215C25.8091 34.219 25.8741 34.219 25.9386 34.215Z" fill="#83CBF8"/>
<path d="M18.0206 16.8063C13.6477 16.8063 10.1025 13.2613 10.1025 8.88818C10.1025 4.51507 13.6477 0.970276 18.0206 0.970276C22.3935 0.970276 25.9387 4.51526 25.9387 8.88837C25.9353 13.2598 22.3922 16.8031 18.0206 16.8063ZM18.0206 4.13976C15.3981 4.13976 13.2722 6.26572 13.2722 8.88818C13.2722 11.5106 15.3981 13.6366 18.0206 13.6366C20.6431 13.6366 22.769 11.5106 22.769 8.88818C22.769 6.26572 20.6431 4.13976 18.0206 4.13976Z" fill="#83CBF8"/>
<path d="M19.6054 35.8H3.77531C3.781 27.9325 10.1635 21.5593 18.0308 21.5652C21.097 21.5675 24.0803 22.5586 26.5381 24.392C26.8092 24.6002 27.1402 24.7147 27.4819 24.7185C28.3638 24.7109 29.0723 23.9899 29.0649 23.1081C29.0605 22.6076 28.8217 22.1381 28.4198 21.8397C25.0365 19.311 20.848 18.1019 16.6378 18.4386C7.48516 19.1509 0.611904 27.1699 0.611904 36.3522V37.1832C0.526433 38.0772 1.1821 38.8715 2.07613 38.9568C2.11621 38.9608 2.15628 38.9631 2.19655 38.9638H19.6054C20.4805 38.9638 21.1903 38.2542 21.1903 37.379C21.1868 36.506 20.4784 35.8 19.6054 35.8Z" fill="#83CBF8"/>
</svg>
