<svg width="39" height="39" viewBox="0 0 39 39" fill="none" xmlns="http://www.w3.org/2000/svg">
<path d="M35.6553 14.9585C34.6675 14.3634 34.1852 13.1919 34.4682 12.0737C35.265 8.96503 33.3907 5.79878 30.282 5.00218C29.3323 4.75868 28.3365 4.75963 27.3872 5.00465C26.2709 5.2869 25.1015 4.80465 24.5085 3.81755C22.8708 1.05719 19.3061 0.147012 16.5461 1.78427C15.7087 2.28096 15.0097 2.98011 14.513 3.81736C13.9206 4.80845 12.7468 5.29165 11.6283 5.00446C8.5192 4.20863 5.35371 6.08369 4.55787 9.19277C4.31551 10.1398 4.3157 11.1328 4.55901 12.0796C4.84335 13.1961 4.36053 14.3668 3.3719 14.9583C0.611738 16.5958 -0.29844 20.1605 1.33901 22.9207C1.83569 23.7581 2.53466 24.4571 3.37209 24.9537C4.36167 25.5473 4.8443 26.7203 4.5592 27.8385C3.76336 30.9476 5.63842 34.1131 8.7475 34.9089C9.69453 35.1515 10.6875 35.1511 11.6344 34.9078C12.7506 34.6255 13.9201 35.1078 14.513 36.0949C16.1505 38.855 19.7152 39.7652 22.4754 38.128C23.3128 37.6313 24.0118 36.9321 24.5085 36.0949C25.1036 35.107 26.2751 34.6248 27.3933 34.9078C30.5023 35.7036 33.6678 33.8286 34.4637 30.7195C34.7062 29.7724 34.7058 28.7795 34.4625 27.8326C34.1803 26.7164 34.6625 25.5469 35.6496 24.9539C38.4098 23.3165 39.32 19.7517 37.6825 16.9916C37.186 16.1541 36.4869 15.4552 35.6496 14.9585H35.6553ZM34.0171 22.1879C31.8112 23.5214 30.7403 26.1431 31.3817 28.6399C31.7356 30.0281 30.8972 31.4401 29.5092 31.7939C29.0856 31.902 28.6415 31.9011 28.2181 31.7915C25.7155 31.1635 23.0973 32.2485 21.7721 34.4626C21.0484 35.6951 19.4628 36.1078 18.2303 35.3843C17.8495 35.1608 17.5321 34.8434 17.3085 34.4626C16.2542 32.6967 14.3495 31.615 12.2931 31.6135C11.8083 31.6131 11.3257 31.675 10.8566 31.7976C9.46832 32.1514 8.05632 31.313 7.70247 29.925C7.5944 29.5014 7.59535 29.0573 7.70494 28.634C8.33477 26.1314 7.24947 23.5116 5.03385 22.1879C3.80135 21.4642 3.38862 19.8786 4.11209 18.6461C4.33564 18.2653 4.65303 17.9479 5.03385 17.7244C7.25099 16.3995 8.33496 13.7758 7.69886 11.2724C7.34862 9.87996 8.19346 8.46721 9.58608 8.11696C10.0072 8.01098 10.448 8.01231 10.8685 8.12057C13.3694 8.74755 15.9856 7.66244 17.3085 5.44949C18.0322 4.21698 19.6178 3.80425 20.8503 4.52772C21.2311 4.75128 21.5485 5.06866 21.7721 5.44949C23.0969 7.66662 25.7207 8.75059 28.224 8.11449C29.6159 7.76178 31.03 8.60396 31.3829 9.99563C31.4898 10.4165 31.4894 10.8574 31.3817 11.2781C30.7466 13.7797 31.8306 16.4014 34.0467 17.7242C35.2793 18.4478 35.692 20.0334 34.9685 21.2659C34.745 21.6467 34.4276 21.9641 34.0467 22.1877H34.0171V22.1879Z" fill="#83CBF8"/>
<path d="M19.5107 11.9255C15.0755 11.9255 11.4799 15.521 11.4799 19.9562C11.4799 24.3916 15.0755 27.9869 19.5107 27.9869C23.9461 27.9869 27.5414 24.3914 27.5414 19.9562C27.535 15.5236 23.9432 11.9319 19.5107 11.9255ZM19.5107 24.7758C16.8489 24.7758 14.691 22.618 14.691 19.9562C14.691 17.2944 16.8489 15.1365 19.5107 15.1365C22.1725 15.1365 24.3303 17.2944 24.3303 19.9562C24.3269 22.6166 22.1711 24.7724 19.5107 24.7758Z" fill="#83CBF8"/>
</svg>
